<svg xmlns="http://www.w3.org/2000/svg" width="25" height="16" viewBox="0 0 25 16" fill="none">
  <path fill-rule="evenodd" clip-rule="evenodd" d="M0.272705 1.69669C0.272705 1.38928 0.394824 1.09446 0.612196 0.877088C0.829568 0.659716 1.12439 0.537598 1.4318 0.537598H23.841C24.1484 0.537598 24.4432 0.659716 24.6606 0.877088C24.8779 1.09446 25 1.38928 25 1.69669C25 2.0041 24.8779 2.29892 24.6606 2.5163C24.4432 2.73367 24.1484 2.85579 23.841 2.85579H1.4318C1.12439 2.85579 0.829568 2.73367 0.612196 2.5163C0.394824 2.29892 0.272705 2.0041 0.272705 1.69669ZM0.272705 8.26489C0.272705 7.95748 0.394824 7.66266 0.612196 7.44529C0.829568 7.22792 1.12439 7.1058 1.4318 7.1058H23.841C24.1484 7.1058 24.4432 7.22792 24.6606 7.44529C24.8779 7.66266 25 7.95748 25 8.26489C25 8.5723 24.8779 8.86712 24.6606 9.08449C24.4432 9.30187 24.1484 9.42399 23.841 9.42399H1.4318C1.12439 9.42399 0.829568 9.30187 0.612196 9.08449C0.394824 8.86712 0.272705 8.5723 0.272705 8.26489ZM1.4318 13.674C1.12439 13.674 0.829568 13.7961 0.612196 14.0135C0.394824 14.2309 0.272705 14.5257 0.272705 14.8331C0.272705 15.1405 0.394824 15.4353 0.612196 15.6527C0.829568 15.8701 1.12439 15.9922 1.4318 15.9922H23.841C24.1484 15.9922 24.4432 15.8701 24.6606 15.6527C24.8779 15.4353 25 15.1405 25 14.8331C25 14.5257 24.8779 14.2309 24.6606 14.0135C24.4432 13.7961 24.1484 13.674 23.841 13.674H1.4318Z" fill="black"/>
</svg>